<svg xmlns="http://www.w3.org/2000/svg" width="48" height="48" fill="none"><path fill="#333" fill-rule="evenodd" d="M24 40c8.8366 0 16-7.1634 16-16S32.8366 8 24 8 8 15.1634 8 24s7.1634 16 16 16Zm0 2c9.9411 0 18-8.0589 18-18S33.9411 6 24 6 6 14.0589 6 24s8.0589 18 18 18Z" clip-rule="evenodd"/><path fill="#333" fill-rule="evenodd" d="M16.6949 28C18.25 31.8319 21.1142 34 24 34c2.8858 0 5.75-2.1681 7.3051-6H16.6949ZM24 36c-4.0381 0-7.5382-3.0479-9.2581-7.5-.0165-.0428-.0329-.0857-.0491-.1287C14.2445 27.18 15.1998 26 16.4727 26h15.0546c1.2729 0 2.2282 1.18 1.7799 2.3713-.0162.043-.0326.0859-.0491.1287C31.5382 32.9521 28.0381 36 24 36Z" clip-rule="evenodd"/><path fill="#333" d="M21.3023 22.4421c.13-.3577.0911-.7947-.0166-1.1932-.1123-.4156-.3191-.8634-.6104-1.2793-.5806-.8292-1.5435-1.5915-2.8443-1.6462-1.3468-.0565-2.3532.7982-2.9732 1.7054-.3145.4603-.5483.9582-.6949 1.4163-.1427.4456-.2184.9018-.1685 1.2664.0231.1692.131.3149.286.3863.1551.0715.3359.0589.4795-.0333.3994-.2564.8191-.6073 1.2069-.9315.1766-.1477.3467-.2898.5051-.4149.5623-.4441.9998-.6972 1.3626-.7149.3446-.0169.7429.1807 1.2446.556.1794.1343.3535.2763.5338.4235.0643.0524.1293.1055.1956.159.2438.1969.5034.3992.7651.5574.128.0775.284.0935.4251.0438.1411-.0498.2525-.1602.3036-.3008zm5.3109 0c-.13-.3577-.0911-.7947.0166-1.1932.1123-.4156.3191-.8634.6104-1.2793.5806-.8292 1.5436-1.5915 2.8443-1.6462 1.3468-.0565 2.3532.7982 2.9732 1.7054.3146.4603.5483.9582.695 1.4163.1427.4456.2183.9018.1684 1.2664-.0231.1692-.131.3149-.286.3863-.155.0715-.3358.0589-.4795-.0333-.3993-.2564-.8191-.6073-1.2069-.9315-.1766-.1477-.3467-.2898-.5051-.4149-.5623-.4441-.9998-.6972-1.3626-.7149-.3445-.0169-.7429.1807-1.2445.556-.1794.1343-.3535.2763-.5339.4235-.0642.0524-.1293.1055-.1956.159-.2438.1969-.5034.3992-.765.5574-.1281.0775-.284.0935-.4251.0438-.1411-.0498-.2525-.1602-.3037-.3008z"/></svg>