<svg xmlns="http://www.w3.org/2000/svg" width="48" height="48" fill="none"><path fill="#333" fill-rule="evenodd" d="M24 40c8.8366 0 16-7.1634 16-16S32.8366 8 24 8 8 15.1634 8 24s7.1634 16 16 16Zm0 2c9.9411 0 18-8.0589 18-18S33.9411 6 24 6 6 14.0589 6 24s8.0589 18 18 18Z" clip-rule="evenodd"/><path fill="#333" fill-rule="evenodd" d="M30.5 20c-.2761 0-.5.2239-.5.5s.2239.5.5.5.5-.2239.5-.5-.2239-.5-.5-.5zm-2.5.5c0-1.3807 1.1193-2.5 2.5-2.5s2.5 1.1193 2.5 2.5-1.1193 2.5-2.5 2.5-2.5-1.1193-2.5-2.5zM17.5 20c-.2761 0-.5.2239-.5.5s.2239.5.5.5.5-.2239.5-.5-.2239-.5-.5-.5zm-2.5.5c0-1.3807 1.1193-2.5 2.5-2.5s2.5 1.1193 2.5 2.5-1.1193 2.5-2.5 2.5-2.5-1.1193-2.5-2.5zM16 31c0-.5523.4477-1 1-1h14c.5523 0 1 .4477 1 1s-.4477 1-1 1H17c-.5523 0-1-.4477-1-1z" clip-rule="evenodd"/></svg>