<svg xmlns="http://www.w3.org/2000/svg" width="48" height="48" fill="none"><path fill="#333" d="M21.2857 21.9149c.1077.3985.1466.8355.0166 1.1932-.0511.1407-.1625.251-.3036.3008-.1411.0497-.2971.0337-.4251-.0437-.2617-.1583-.5213-.3606-.7651-.5574-.0659-.0533-.1304-.106-.1942-.158l-.0008-.0007c-.1804-.1471-.355-.2896-.5344-.4238-.5017-.3754-.9-.573-1.2446-.5561-.3628.0178-.8003.2708-1.3626.7149-.1584.1251-.3285.2672-.5051.4149-.3878.3242-.8075.6751-1.2069.9315-.1436.0923-.3244.1048-.4795.0333-.155-.0714-.2629-.2171-.286-.3862-.0499-.3646.0258-.8208.1685-1.2665.1466-.458.3804-.956.6949-1.4163.62-.9071 1.6264-1.7619 2.9732-1.7053 1.3008.0546 2.2637.8169 2.8443 1.6461.2913.4159.4981.8637.6104 1.2793zm5.3441 0c-.1077.3985-.1466.8355-.0166 1.1932.0512.1407.1626.251.3037.3008.1411.0497.297.0337.4251-.0437.2616-.1583.5212-.3606.765-.5574.0659-.0533.1305-.1059.1943-.158l.0013-.0011c.1804-.1471.3545-.2892.5339-.4234.5016-.3754.9-.573 1.2445-.5561.3628.0178.8003.2708 1.3626.7149.1584.1251.3285.2672.5051.4149.3878.3242.8076.6751 1.2069.9315.1437.0923.3245.1048.4795.0333.155-.0714.2629-.2171.286-.3862.0499-.3646-.0257-.8208-.1684-1.2665-.1467-.458-.3804-.956-.695-1.4163-.62-.9071-1.6264-1.7619-2.9732-1.7053-1.3007.0546-2.2637.8169-2.8443 1.6461-.2913.4159-.4981.8637-.6104 1.2793z"/><path fill="#333" fill-rule="evenodd" d="M30.3684 31.494c.2036-.2493.3651-.5677.4713-.8778.1057-.3085.1892-.7032.1508-1.1068-.0397-.4167-.2297-.956-.7792-1.2772-.5082-.2971-1.0964-.2686-1.6168-.1381l-.0134.0036c-2.3959.636-3.569.8992-4.7043.8941-1.138-.0051-2.2853-.2791-4.6385-.8926-.4546-.1278-.9954-.1589-1.4765.1303-.4971.2987-.6815.7877-.7374 1.154-.0556.3648-.0088.7276.0665 1.0212.0759.2957.2011.6011.3714.8545.1162.1731.2886.352.351.4167.0099.0103.017.0177.0207.0217C19.1575 33.146 21.4962 34 24.0132 34c2.6232 0 5.0679-.9297 6.3552-2.506Zm-6.5006-.5022c1.4058.0063 2.7975-.3185 5.0349-.9103-.0099.0216-.0199.0421-.03.0611-.0275.052-.0479.0797-.0534.0863C28.0331 31.1916 26.2582 32 24.0132 32c-2.1417 0-3.8679-.7378-4.7027-1.6515-.0308-.0337-.0612-.0656-.0845-.0902l-.0017-.0018c-.0186-.0195-.0331-.0349-.0461-.0488l-.0146-.0158c-.0315-.0344-.0407-.0472-.0412-.048-.0018-.0028-.004-.0061-.0062-.0099 2.0661.5363 3.3945.8517 4.7516.8578Z" clip-rule="evenodd"/><path fill="#333" fill-rule="evenodd" d="M42 24c0 9.9411-8.0589 18-18 18S6 33.9411 6 24 14.0589 6 24 6s18 8.0589 18 18Zm-2 0c0 8.8366-7.1634 16-16 16S8 32.8366 8 24 15.1634 8 24 8s16 7.1634 16 16Z" clip-rule="evenodd"/></svg>