<svg xmlns="http://www.w3.org/2000/svg" width="48" height="48" fill="none"><path fill="#333" fill-rule="evenodd" d="M17.5 21c-.2761 0-.5.2239-.5.5s.2239.5.5.5.5-.2239.5-.5-.2239-.5-.5-.5zm-2.5.5c0-1.3807 1.1193-2.5 2.5-2.5s2.5 1.1193 2.5 2.5-1.1193 2.5-2.5 2.5-2.5-1.1193-2.5-2.5zm15.5-.5c-.2761 0-.5.2239-.5.5s.2239.5.5.5.5-.2239.5-.5-.2239-.5-.5-.5zm-2.5.5c0-1.3807 1.1193-2.5 2.5-2.5s2.5 1.1193 2.5 2.5-1.1193 2.5-2.5 2.5-2.5-1.1193-2.5-2.5z" clip-rule="evenodd"/><path fill="#333" fill-rule="evenodd" d="M24 40c8.8366 0 16-7.1634 16-16S32.8366 8 24 8 8 15.1634 8 24s7.1634 16 16 16Zm0 2c9.9411 0 18-8.0589 18-18S33.9411 6 24 6 6 14.0589 6 24s8.0589 18 18 18Z" clip-rule="evenodd"/><path fill="#333" fill-rule="evenodd" d="m21.3196 34.5138-.0441.0357c-.4293.3476-1.059.2813-1.4065-.1479-.3476-.4292-.2813-1.0589.1479-1.4064.0444-.036.0888-.072.1333-.1081 1.1834-.9597 2.4112-1.9553 4.2743-2.4591 1.9219-.5197 4.4083-.4944 8.1431.3228.5395.118.8812.6511.7631 1.1906-.118.5396-.6511.8812-1.1906.7632-3.5919-.786-5.7153-.7457-7.1935-.346-1.4498.3921-2.3862 1.1504-3.627 2.1552Z" clip-rule="evenodd"/></svg>