<svg xmlns="http://www.w3.org/2000/svg" width="48" height="48" fill="none"><path fill="#333" d="M14.8073 23.2328c-.6831-.4374-1.1836-1.1449-1.0645-1.8826.0239-.1477.1126-.277.2419-.3523.1293-.0754.2855-.0889.4258-.0368 1.8182.6751 3.8462.2563 5.6421-1.4484.1238-.1176.2991-.1638.4648-.1227.1657.0412.2989.1641.3533.3259.2317.6888.0241 1.6182-.4802 2.3817-.522.7902-1.4075 1.4815-2.6535 1.6654-1.1984.1769-2.216-.073-2.9297-.5302zm17.9469 0c.6831-.4374 1.1835-1.1449 1.0645-1.8826-.0239-.1477-.1126-.277-.2419-.3523-.1293-.0754-.2855-.0889-.4258-.0368-1.8183.6751-3.8462.2563-5.6421-1.4484-.1238-.1176-.2991-.1638-.4648-.1227-.1657.0412-.2989.1641-.3534.3259-.2317.6888-.0241 1.6182.4803 2.3817.522.7902 1.4075 1.4815 2.6534 1.6654 1.1985.1769 2.216-.073 2.9298-.5302z"/><path fill="#333" fill-rule="evenodd" d="M17.3956 31.1707c-.1856.2847-.3337.65-.4309 1.0056-.0979.3577-.1675.7898-.1353 1.2135.0305.4008.1713.9909.6986 1.3771.5501.4029 1.2119.363 1.7717.1871l.008-.0025.0079-.0026c2.4369-.8106 3.5985-1.1337 4.7136-1.1274 1.1189.0063 2.254.3431 4.6483 1.1252.5062.1778 1.133.2157 1.6557-.1942.4701-.3686.6022-.9124.6401-1.2681.0412-.3866-.0019-.7853-.0757-1.1239-.0731-.3358-.1927-.6871-.3566-.9728-.0862-.1503-.2278-.3368-.2783-.4031-.0088-.0116-.0148-.0195-.0173-.023C28.9392 29.1388 26.5375 28 23.892 28c-2.7417 0-5.228 1.2248-6.4964 3.1707Zm1.4367 2.1309c.0011.0043.0019.0061.0019.0061s-.0005-.0036-.0027-.0094c.0003.0012.0005.0023.0008.0033Zm.0615-.5978c-.0292.1069-.049.2079-.0603.2978 2.2889-.7594 3.7368-1.1883 5.207-1.18 1.4218.008 2.8078.426 4.9306 1.1172-.007-.0489-.0162-.1001-.0277-.1527-.0433-.1992-.1031-.3437-.1372-.4033-.0189-.0329-.0292-.0461-.0537-.0777-.0238-.0306-.0612-.0786-.1327-.1785C27.7499 30.9128 26.0046 30 23.892 30c-2.1946 0-3.987.9834-4.821 2.2629-.0411.0631-.1173.2221-.1772.4409Zm10.0809.6279c-.002.0055-.0026.0088-.0026.0088s.0016-.0032.0035-.0113c-.0003.0009-.0007.0017-.0009.0025Z" clip-rule="evenodd"/><path fill="#333" fill-rule="evenodd" d="M42 24c0 9.9411-8.0589 18-18 18S6 33.9411 6 24 14.0589 6 24 6s18 8.0589 18 18Zm-2 0c0 8.8366-7.1634 16-16 16S8 32.8366 8 24 15.1634 8 24 8s16 7.1634 16 16Z" clip-rule="evenodd"/></svg>