<svg xmlns="http://www.w3.org/2000/svg" width="48" height="48" fill="none"><path fill="#333" d="M14.8073 22.2328c-.6831-.4375-1.1836-1.145-1.0645-1.8827.0239-.1477.1126-.277.2419-.3523.1293-.0753.2855-.0888.4258-.0367 1.8182.675 3.8462.2563 5.6421-1.4485.1238-.1175.2991-.1638.4648-.1226.1657.0411.2989.164.3533.3258.2317.6888.0241 1.6183-.4802 2.3817-.522.7902-1.4075 1.4815-2.6535 1.6654-1.1984.177-2.216-.073-2.9297-.5301zm17.9469 0c.6831-.4375 1.1835-1.145 1.0645-1.8827-.0239-.1477-.1126-.277-.2419-.3523-.1293-.0753-.2855-.0888-.4258-.0367-1.8183.675-3.8462.2563-5.6421-1.4485-.1238-.1175-.2991-.1638-.4648-.1226-.1657.0411-.2989.164-.3534.3258-.2317.6888-.0241 1.6183.4803 2.3817.522.7902 1.4075 1.4815 2.6534 1.6654 1.1985.177 2.216-.073 2.9298-.5301z"/><path fill="#333" fill-rule="evenodd" d="M33.2581 31c-1.7199-3.5617-5.22-6-9.2581-6-4.0381 0-7.5382 2.4383-9.2581 6-.4689.9709.3163 2 1.3944 2h15.7274c1.0781 0 1.8633-1.0291 1.3944-2ZM24 27c2.8697 0 5.4525 1.5553 6.9778 4H17.0222c1.5253-2.4447 4.1081-4 6.9778-4Z" clip-rule="evenodd"/><path fill="#333" fill-rule="evenodd" d="M42 24c0 9.9411-8.0589 18-18 18S6 33.9411 6 24 14.0589 6 24 6s18 8.0589 18 18Zm-2 0c0 8.8366-7.1634 16-16 16S8 32.8366 8 24 15.1634 8 24 8s16 7.1634 16 16Z" clip-rule="evenodd"/></svg>