<svg xmlns="http://www.w3.org/2000/svg" width="48" height="48" fill="none"><path fill="#333" fill-rule="evenodd" d="M30.5 18c-1.3807 0-2.5 1.1193-2.5 2.5s1.1193 2.5 2.5 2.5 2.5-1.1193 2.5-2.5-1.1193-2.5-2.5-2.5zm-.5 2.5c0-.2761.2239-.5.5-.5s.5.2239.5.5-.2239.5-.5.5-.5-.2239-.5-.5zm-15 0c0-1.3807 1.1193-2.5 2.5-2.5s2.5 1.1193 2.5 2.5-1.1193 2.5-2.5 2.5-2.5-1.1193-2.5-2.5zm2.5-.5c-.2761 0-.5.2239-.5.5s.2239.5.5.5.5-.2239.5-.5-.2239-.5-.5-.5z" clip-rule="evenodd"/><path fill="#333" fill-rule="evenodd" d="M27.8737 41.5821C35.953 39.8102 42 32.6113 42 24c0-9.9411-8.0589-18-18-18S6 14.0589 6 24c0 8.6113 6.047 15.8102 14.1263 17.5821C21.1716 42.4667 22.5235 43 24 43c1.4765 0 2.8284-.5333 3.8737-1.4179Zm1.7968-2.616C35.7081 36.6773 40 30.8399 40 24c0-8.8366-7.1634-16-16-16S8 15.1634 8 24c0 6.8399 4.2919 12.6773 10.3295 14.9661C18.116 38.3502 18 37.6886 18 37v-1.811c-1.1298-.4015-1.9585-.9251-2.5628-1.5087-1.3837-1.3361-1.3976-2.7998-1.3976-3.1803v-.0037l-.0004-.0111c-.0004-.01-.0011-.0232-.0023-.0404-.0022-.0339-.0053-.0721-.0093-.1231l-.0009-.011c-.0085-.1066-.02-.2512-.0246-.4096-.009-.3102.0049-.7376.1481-1.1738.1499-.457.4423-.9217.9625-1.2566.5047-.3249 1.1354-.4707 1.8686-.4707h14.077c.6593 0 1.2302.1674 1.6946.4913.4586.3198.7441.7437.9205 1.1469.3277.7487.3269 1.548.3266 1.8389V30.5c0 .5066-.2026 1.9327-1.6789 3.2157-.5809.5049-1.3378.969-2.3211 1.3451V37c0 .6886-.116 1.3502-.3295 1.9661Zm-12.844-6.7245c.2668.2577.6432.5322 1.1735.7859V32c0-.5523.4477-1 1-1h10c.5523 0 1 .4477 1 1v.8754c.425-.2181.7544-.4478 1.0091-.6692.4816-.4185.7258-.8312.852-1.142.0641-.1577.0992-.293.1182-.394.0095-.0504.0147-.0916.0176-.1218.0003-.0028.0005-.0055.0008-.0081.0009-.0112.0015-.0204.0019-.0273l.0003-.0084L32 30.5c0-.2928-.0101-.7201-.1588-1.0601-.0664-.1515-.1448-.2471-.2324-.3082-.0816-.0569-.2388-.1317-.5505-.1317h-14.077c-.4804 0-.6991.0964-.786.1523-.0714.046-.1128.1009-.1449.1986-.0388.1184-.0553.2809-.0491.4921.003.1023.0105.2015.019.3084l.0019.0238c.0072.0882.0174.2149.0174.3248v.0092c-.0002.1979-.0011.9715.7869 1.7324ZM24 37c-.5523 0-1-.4477-1-1v-3h-3v4c0 2.2091 1.7909 4 4 4 2.2091 0 4-1.7909 4-4v-4h-3v3c0 .5523-.4477 1-1 1Z" clip-rule="evenodd"/></svg>